<?xml version="1.0" encoding="UTF-8"?><svg xmlns="http://www.w3.org/2000/svg" viewBox="0 0 410 410"><rect width="410" height="410" fill="#fff"/><path d="M40 40h120v120H40zM70 70v60h60V70zM90 90h20v20H90zM250 40h120v120H250zM280 70v60h60V70zM300 90h20v20h-20zM40 250h120v120H40zM70 280v60h60v-60zM90 300h20v20H90zM190 40h20v20h-20zM190 80h40v20h-40zM170 120h20v40h-20zM210 120h20v20h-20zM190 150h20v30h-20zM250 180h20v20h-20zM290 180h20v20h-20zM330 180h40v20h-40zM170 200h40v20h-40zM230 210h20v40h-20zM270 220h20v20h-20zM310 220h20v40h-20zM350 220h20v20h-20zM170 250h20v40h-20zM210 260h40v20h-40zM270 270h20v40h-20zM300 260h20v20h-20zM340 270h30v20h-30zM190 300h20v30h-20zM230 300h20v60h-20zM270 330h40v20h-40zM330 310h40v20h-40z" fill="#000"/></svg>